<svg width="2238" height="545" viewBox="0 0 2238 545" fill="none" xmlns="http://www.w3.org/2000/svg">
<path d="M2195.22 136.978C2195.77 135.205 2207.34 135.225 2208.67 136.107C2209.51 136.67 2214.05 151.88 2215.31 154.616C2215.69 155.448 2215.82 156.584 2217.01 156.683C2217.92 153.465 2222.37 137.786 2224.06 136.48C2225.78 135.165 2237.14 135.19 2237.14 136.978V169.677C2237.14 171.526 2227.92 171.526 2227.92 169.677V147.461L2219.91 169.219C2218.61 171.471 2214.52 171.879 2212.89 169.607L2204.44 147.461V169.677C2204.44 171.526 2195.22 171.526 2195.22 169.677V136.978Z" fill="white"/>
<path d="M2174.26 143.267L2164.19 143.272C2164.41 141.444 2163.5 137.114 2164.98 136.088C2166.03 135.355 2188.27 135.286 2190.61 135.719C2194.02 136.347 2192.4 140.607 2192.7 143.272C2190.92 143.437 2182.64 142.53 2182.64 144.523V170.939C2181.07 170.879 2174.26 171.517 2174.26 169.678V143.267Z" fill="white"/>
<path d="M1123.5 390.77C1120.38 391.198 1117.31 391.417 1114.36 391.417C1078.91 391.412 1061.75 359.66 1060.47 328.197C1058.68 284.174 1082.75 259.103 1107.44 257.09C1109.07 256.956 1110.7 256.886 1112.28 256.886C1146.84 256.886 1161.32 289.221 1163.22 316.907C1166.13 359.312 1145.31 387.765 1123.5 390.77ZM1163.61 226.668C1163.6 228.178 1161.82 228.97 1160.7 227.954C1144.8 213.505 1123.41 205.364 1100.72 205.364C1082.49 205.364 1064.4 210.342 1048.39 219.758C1031.81 229.513 1018.39 245.521 1009.56 266.053C1001.39 285.046 997.435 306.998 998.113 329.528C999.523 376.366 1020.56 415.746 1053.02 432.302C1067.39 439.626 1084.26 443.662 1100.55 443.662H1100.55C1124.46 443.662 1145.77 435.281 1160.57 420.07C1160.58 420.061 1160.6 420.046 1160.61 420.036C1161.71 418.9 1163.61 419.612 1163.61 421.191V437.259C1163.61 438.226 1164.4 439.008 1165.36 439.008H1225.53C1226.5 439.008 1227.28 438.226 1227.28 437.259V212.429C1227.28 211.463 1226.5 210.68 1225.53 210.68H1165.37C1164.4 210.68 1163.62 211.463 1163.62 212.424L1163.61 226.668Z" fill="white"/>
<path d="M1874.73 299.66C1873.58 299.66 1872.67 298.634 1872.85 297.498C1877.7 266.14 1904.29 251.801 1927.91 251.801C1951.4 251.801 1977.51 266.15 1981.59 297.543C1981.73 298.669 1980.83 299.66 1979.7 299.66H1874.73ZM2038.34 291.3C2025.4 227.378 1970.25 204.698 1926.96 204.698C1897.81 204.698 1870 214.06 1848.65 231.059C1824.74 250.092 1810.88 277.041 1808.57 308.982C1805.87 346.27 1816.57 379.008 1839.49 403.655C1863.54 429.508 1899.62 444.331 1938.49 444.331C1966.83 444.331 1994.79 436.509 2019.33 421.711L2020.36 421.093C2020.93 420.75 2021.28 420.137 2021.28 419.469V367.404C2021.28 366.089 2019.97 365.172 2018.73 365.626L2013.13 369.851C1998.7 379.651 1995.69 380.109 1984.92 385.425C1973.15 391.235 1960.26 393.272 1947.26 393.272C1916.6 393.272 1882.64 376.422 1873.5 338.936C1873.21 337.755 1874.14 336.614 1875.35 336.614H2033.95C2035.8 336.614 2037.5 335.787 2038.74 334.277C2041.49 330.919 2042.2 322.873 2040.93 309.68C2040.01 300.099 2038.35 291.37 2038.34 291.3Z" fill="white"/>
<path d="M1376.85 260.621V212.537H1334.57V145.69C1334.57 145.69 1288.77 165.978 1270.91 175.384V212.537H1246.43V260.621H1270.91V374.645C1271.35 388.402 1273.37 393.11 1274.46 396.388C1280.3 413.931 1301.5 443.735 1332.74 443.735C1358.77 443.735 1373.4 431.244 1374.26 430.616L1374.34 430.562C1375.34 429.839 1375.93 428.688 1375.93 427.463V378.502C1375.93 377.49 1374.68 377.007 1374.01 377.754C1374.01 377.754 1369.05 383.175 1368.95 383.29C1366.6 385.866 1364.63 388.471 1361.49 390.205C1358.16 392.044 1354.33 392.97 1350.53 393.12C1347.8 393.229 1344.96 392.955 1342.56 391.645C1337.01 388.601 1334.57 380.714 1334.57 374.775V260.621H1376.85Z" fill="white"/>
<path d="M2173.88 260.621V212.537H2131.6V145.69C2131.6 145.69 2085.8 165.978 2067.94 175.384V212.537H2043.46V260.621H2067.94V374.645C2068.38 388.402 2070.41 393.11 2071.5 396.388C2077.33 413.931 2098.53 443.735 2129.77 443.735C2155.81 443.735 2170.43 431.244 2171.3 430.616L2171.38 430.562C2172.37 429.839 2172.96 428.688 2172.96 427.463V378.502C2172.96 377.49 2171.71 377.007 2171.04 377.754L2165.98 383.29C2163.63 385.866 2161.66 388.471 2158.52 390.205C2155.19 392.044 2151.36 392.97 2147.57 393.12C2144.83 393.229 2142 392.955 2139.59 391.645C2134.04 388.601 2131.6 380.714 2131.6 374.775V260.621H2173.88Z" fill="white"/>
<path d="M1572.8 371.12L1552.82 382.565C1541.64 389.6 1529.66 393.167 1517.24 393.167C1480.8 393.167 1450.95 362.396 1450.56 324.516C1450.95 286.636 1480.8 255.865 1517.24 255.865C1529.66 255.865 1541.64 259.433 1552.82 266.468L1572.8 277.912C1573.88 278.53 1575.39 278.913 1575.39 277.663V228.936C1575.39 225.204 1573.59 222.758 1570.68 220.486C1564.47 215.648 1556 212.574 1548.64 210.023C1531.39 204.045 1512.55 204.428 1494.61 206.257C1462.29 209.555 1432.05 224.866 1412.11 250.818C1396.27 271.435 1388.09 297.143 1388.12 324.516C1388.09 351.889 1396.27 377.597 1412.11 398.209C1432.05 424.162 1462.29 439.472 1494.61 442.77C1512.55 444.599 1531.39 444.982 1548.64 439.009C1556 436.458 1564.47 433.379 1570.68 428.546C1573.59 426.269 1575.39 423.823 1575.39 420.091V371.778C1575.39 370.527 1573.88 370.502 1572.8 371.12Z" fill="white"/>
<path d="M777.715 407.116V430.249C777.715 434.285 781.018 437.583 785.049 437.583H838.872C840.173 437.583 841.234 436.527 841.234 435.221L841.229 378.194C841.229 375.883 838.793 374.383 836.73 375.424L779.319 404.506C778.333 405.004 777.715 406.015 777.715 407.116Z" fill="#C4262D"/>
<path d="M975.583 259.509C967.736 220.378 933.513 202.865 903.076 202.865C886.147 202.865 870.004 207.947 856.398 217.553C852.282 220.458 848.894 224.035 845.611 227.498L841.232 232.121V155.329L841.177 155.359V111.162C841.177 109.448 840.041 108.058 838.641 108.058L781.265 140.019C779.272 141.155 777.718 141.972 777.718 143.686V377.439C777.718 378.854 779.207 379.766 780.468 379.128L839.508 349.22C840.564 348.687 841.232 347.605 841.232 346.42V295.287C841.232 290.175 842.218 285.118 844.126 280.375C845.192 277.719 846.289 275.188 846.896 274.127C853.189 263.086 865.65 256.226 879.416 256.226C887.861 256.226 895.897 259.11 902.543 263.644C909.294 268.253 915.089 277.943 915.368 291.032V434.8C915.368 436.34 916.613 437.585 918.153 437.585H975.693C977.447 437.585 978.887 436.146 978.887 434.392V283.713C978.887 279.742 976.485 263.993 975.583 259.509Z" fill="white"/>
<path d="M1591.19 407.116V430.249C1591.19 434.285 1594.49 437.583 1598.52 437.583H1652.35C1653.65 437.583 1654.71 436.527 1654.71 435.221L1654.7 378.194C1654.7 375.883 1652.27 374.383 1650.2 375.424L1592.79 404.506C1591.81 405.004 1591.19 406.015 1591.19 407.116Z" fill="#C4262D"/>
<path d="M1789.06 259.509C1781.21 220.378 1746.99 202.865 1716.55 202.865C1699.62 202.865 1683.48 207.947 1669.87 217.553C1665.75 220.458 1662.36 224.035 1659.08 227.498L1654.7 232.121V155.329L1654.65 155.359V111.162C1654.65 109.448 1653.51 108.058 1652.11 108.058L1594.74 140.019C1592.74 141.155 1591.19 141.972 1591.19 143.686V377.439C1591.19 378.854 1592.68 379.766 1593.94 379.128L1652.98 349.22C1654.04 348.687 1654.7 347.605 1654.7 346.42V295.287C1654.7 290.175 1655.69 285.118 1657.6 280.375C1658.67 277.719 1659.76 275.188 1660.37 274.127C1666.66 263.086 1679.12 256.226 1692.89 256.226C1701.33 256.226 1709.37 259.11 1716.02 263.644C1722.77 268.253 1728.56 277.943 1728.84 291.032V434.8C1728.84 436.34 1730.09 437.585 1731.63 437.585H1789.17C1790.92 437.585 1792.36 436.146 1792.36 434.392V283.713C1792.36 279.742 1789.95 263.993 1789.06 259.509Z" fill="white"/>
<path d="M554.184 140.344C517.751 116.405 471.922 92.7341 433.321 71.0536C399.997 52.3326 365.473 31.9547 331.464 14.837C314.821 6.45748 302.109 -1.81491 282.42 0.349008C271.913 1.5031 261.065 6.52752 251.737 11.2758C198.229 38.5082 144.584 71.5894 92.0234 101.142C69.3908 113.866 43.6958 125.696 21.8958 139.166C-6.31352 156.588 -2.37308 175.759 6.7731 203.655C15.6596 230.768 26.9656 257.431 36.5445 284.346C52.0341 327.847 66.3448 373.273 82.8772 416.176C88.6806 431.225 91.1496 437.943 105.126 447.391C156.207 473.778 205.343 509.283 256.465 534.933C277.276 545.373 288.92 549.676 310.864 538.077C328.344 528.841 345.173 517.357 362.481 507.696C397.165 488.332 436.635 469.644 469.749 448.569C487.288 437.408 488.891 429.407 496.438 411.107C526.687 337.752 549.246 260.061 575.876 185.292C579.359 163.562 571.367 151.634 554.184 140.344Z" fill="#C4262D"/>
<path d="M205.599 375.451V395.42C205.599 398.903 208.447 401.751 211.93 401.751H258.39C259.516 401.751 260.427 400.841 260.427 399.715V350.485C260.427 348.486 258.32 347.192 256.54 348.094L206.984 373.196C206.135 373.629 205.599 374.498 205.599 375.451Z" fill="white"/>
<path d="M376.403 248.032C369.631 214.255 340.087 199.136 313.815 199.136C299.199 199.136 285.267 203.522 273.52 211.815C269.967 214.325 267.041 217.412 264.209 220.4L260.43 224.39V158.1L260.38 158.129V119.974C260.38 118.494 259.399 117.294 258.187 117.294L208.66 144.885C206.946 145.866 205.598 146.571 205.598 148.051V349.832C205.598 351.052 206.884 351.843 207.972 351.291L258.942 325.476C259.853 325.014 260.425 324.079 260.425 323.057V278.917C260.425 274.506 261.279 270.137 262.927 266.044C263.847 263.753 264.795 261.568 265.318 260.649C270.746 251.12 281.504 245.197 293.391 245.197C300.679 245.197 307.615 247.686 313.353 251.602C319.181 255.579 324.181 263.942 324.424 275.244V399.35C324.424 400.677 325.5 401.753 326.827 401.753H376.498C378.015 401.753 379.256 400.513 379.256 398.996V268.93C379.256 265.496 377.178 251.903 376.403 248.032Z" fill="white"/>
</svg>
