<?xml version="1.0" encoding="UTF-8" standalone="no"?>
<!DOCTYPE svg PUBLIC "-//W3C//DTD SVG 1.1//EN" "http://www.w3.org/Graphics/SVG/1.1/DTD/svg11.dtd">
<svg width="100%" height="100%" viewBox="0 0 780 754" version="1.1" xmlns="http://www.w3.org/2000/svg" xmlns:xlink="http://www.w3.org/1999/xlink" xml:space="preserve" xmlns:serif="http://www.serif.com/" style="fill-rule:evenodd;clip-rule:evenodd;stroke-linejoin:round;stroke-miterlimit:2;">
    <g transform="matrix(1,0,0,1,-0,-2988.07203)">
        <g id="hatchet_icon_red" transform="matrix(2.164815,0,0,3.487654,0,2988.07203)">
            <rect x="0" y="0" width="360" height="216" style="fill:none;"/>
            <g transform="matrix(1.51532,0,0,0.940571,16.307804,6.331999)">
                <g transform="matrix(1,0,0,1,172.498,140.9443)">
                    <path d="M0,-64.82C-8.839,-70.628 -19.958,-76.371 -29.323,-81.631C-37.408,-86.173 -45.784,-91.117 -54.035,-95.27C-58.073,-97.303 -61.157,-99.31 -65.934,-98.785C-68.483,-98.505 -71.115,-97.286 -73.378,-96.134C-86.36,-89.527 -99.375,-81.501 -112.127,-74.331C-117.618,-71.244 -123.852,-68.374 -129.141,-65.106C-135.985,-60.879 -135.029,-56.228 -132.81,-49.46C-130.654,-42.882 -127.911,-36.413 -125.587,-29.883C-121.829,-19.329 -118.357,-8.308 -114.346,2.101C-112.938,5.752 -112.339,7.382 -108.948,9.674C-96.555,16.076 -84.634,24.69 -72.231,30.913C-67.182,33.446 -64.357,34.49 -59.033,31.676C-54.792,29.435 -50.709,26.649 -46.51,24.305C-38.095,19.607 -28.519,15.073 -20.485,9.96C-16.23,7.252 -15.841,5.311 -14.01,0.871C-6.671,-16.926 -1.198,-35.775 5.263,-53.915C6.108,-59.187 4.169,-62.081 0,-64.82" style="fill:rgb(196,38,45);fill-rule:nonzero;"/>
                </g>
                <g transform="matrix(1,0,0,1,87.9262,132.6897)">
                    <path d="M0,0.475L0,5.32C0,6.165 0.691,6.856 1.536,6.856L12.808,6.856C13.081,6.856 13.302,6.635 13.302,6.362L13.302,-5.582C13.302,-6.067 12.791,-6.381 12.359,-6.162L0.336,-0.072C0.13,0.033 0,0.244 0,0.475" style="fill:white;fill-rule:nonzero;"/>
                </g>
                <g transform="matrix(1,0,0,1,129.3659,107.827)">
                    <path d="M0,-5.576C-1.643,-13.771 -8.811,-17.439 -15.185,-17.439C-18.731,-17.439 -22.111,-16.375 -24.961,-14.363C-25.823,-13.754 -26.533,-13.005 -27.22,-12.28L-28.137,-11.312L-28.137,-27.395L-28.149,-27.388L-28.149,-36.645C-28.149,-37.004 -28.387,-37.295 -28.681,-37.295L-40.697,-30.601C-41.113,-30.363 -41.44,-30.192 -41.44,-29.833L-41.44,19.122C-41.44,19.418 -41.128,19.61 -40.864,19.476L-28.498,13.213C-28.277,13.101 -28.138,12.874 -28.138,12.626L-28.138,1.917C-28.138,0.847 -27.931,-0.213 -27.531,-1.206C-27.308,-1.762 -27.078,-2.292 -26.951,-2.515C-25.634,-4.827 -23.024,-6.264 -20.14,-6.264C-18.372,-6.264 -16.689,-5.66 -15.297,-4.71C-13.883,-3.745 -12.67,-1.716 -12.611,1.026L-12.611,31.136C-12.611,31.458 -12.35,31.719 -12.028,31.719L0.023,31.719C0.391,31.719 0.692,31.418 0.692,31.05L0.692,-0.506C0.692,-1.339 0.188,-4.637 0,-5.576" style="fill:white;fill-rule:nonzero;"/>
                </g>
            </g>
        </g>
    </g>
</svg>
